<svg width="24" height="24" viewBox="0 0 24 24" fill="none" xmlns="http://www.w3.org/2000/svg">
<g id="icons8-apple-logo 1" clip-path="url(#clip0_1_2921)">
<g id="Vector">
<path d="M17.4864 2.34663e-05C16.1252 0.0918984 14.6683 0.901898 13.7664 1.99502C12.977 2.9569 12.3152 4.36877 12.5664 5.83502C12.3414 5.76565 12.137 5.75815 11.8914 5.67002C11.222 5.4319 10.457 5.17502 9.5064 5.17502C7.61828 5.17502 5.68515 6.29815 4.4664 8.17502C2.69265 10.9013 3.0489 15.6994 5.7414 19.8C6.21578 20.52 6.7689 21.3056 7.4514 21.93C8.1339 22.5544 8.9589 23.0306 9.9264 23.04C10.7533 23.0494 11.3289 22.7738 11.8464 22.545C12.3639 22.3163 12.8458 22.1138 13.7514 22.11C13.757 22.11 13.7608 22.11 13.7664 22.11C14.6683 22.1025 15.1352 22.3013 15.6414 22.53C16.1477 22.7588 16.7177 23.0475 17.5464 23.04C18.5327 23.0325 19.3708 22.4925 20.0664 21.825C20.762 21.1575 21.3339 20.3382 21.8064 19.62C22.4833 18.5888 22.7552 18.0263 23.2764 16.875C23.3308 16.755 23.3327 16.6163 23.2802 16.4944C23.2295 16.3725 23.1302 16.2769 23.0064 16.23C21.3002 15.585 20.327 14.0756 20.1864 12.48C20.0458 10.8844 20.7208 9.2419 22.4214 8.31002C22.547 8.24252 22.6352 8.1244 22.6652 7.98565C22.6933 7.8469 22.6595 7.70065 22.5714 7.59002C21.3508 6.07315 19.6333 5.17502 17.9514 5.17502C16.8789 5.17502 16.0914 5.42815 15.4464 5.67002C15.3395 5.71127 15.2608 5.70752 15.1614 5.74502C15.8158 5.40002 16.3933 4.9219 16.8264 4.36502C17.6139 3.3544 18.2214 1.91627 17.9964 0.405023C17.9589 0.157523 17.7358 -0.0187265 17.4864 2.34663e-05ZM16.9764 1.14002C16.9445 2.1094 16.6127 3.05815 16.0614 3.76502C15.4839 4.50752 14.5127 5.02127 13.5714 5.17502C13.5883 4.24315 13.9558 3.27752 14.5164 2.59502C15.1052 1.88252 16.0802 1.36877 16.9764 1.14002ZM9.5064 6.13502C9.9264 6.13502 10.9014 6.33565 11.5614 6.57002C12.2214 6.8044 12.917 7.08002 13.7364 7.08002C14.537 7.08002 15.1708 6.80252 15.7914 6.57002C16.412 6.33752 17.0308 6.13502 17.9514 6.13502C19.1533 6.13502 20.4527 6.7594 21.4764 7.84502C19.8377 9.0019 19.0708 10.8056 19.2264 12.555C19.382 14.3231 20.447 16.0013 22.1964 16.875C22.1939 16.8805 22.1914 16.8859 22.1889 16.8914C21.8143 17.7073 21.5646 18.2513 21.0114 19.095C20.552 19.7944 20.0064 20.5594 19.4064 21.135C18.8064 21.7106 18.1708 22.0744 17.5314 22.08C16.9145 22.0856 16.5639 21.9019 16.0314 21.66C15.4989 21.4181 14.8108 21.1406 13.7514 21.15C12.6939 21.1556 11.9964 21.4219 11.4564 21.66C10.9164 21.8981 10.562 22.0856 9.9414 22.08C9.28515 22.0744 8.67578 21.7556 8.0964 21.225C7.51703 20.6944 6.9939 19.9706 6.5364 19.275C4.0164 15.435 3.8139 10.9238 5.2614 8.70002C6.32265 7.0669 9.0864 6.13502 9.5064 6.13502Z" fill="black"/>
<path d="M9.5064 6.13502C9.9264 6.13502 10.9014 6.33565 11.5614 6.57002C12.2214 6.8044 12.917 7.08002 13.7364 7.08002C14.537 7.08002 15.1708 6.80252 15.7914 6.57002C16.412 6.33752 17.0308 6.13502 17.9514 6.13502C19.1533 6.13502 20.4527 6.7594 21.4764 7.84502C19.8377 9.0019 19.0708 10.8056 19.2264 12.555C19.382 14.3231 20.447 16.0013 22.1964 16.875L22.1889 16.8914C21.8143 17.7073 21.5646 18.2513 21.0114 19.095C20.552 19.7944 20.0064 20.5594 19.4064 21.135C18.8064 21.7106 18.1708 22.0744 17.5314 22.08C16.9145 22.0856 16.5639 21.9019 16.0314 21.66C15.4989 21.4181 14.8108 21.1406 13.7514 21.15C12.6939 21.1556 11.9964 21.4219 11.4564 21.66C10.9164 21.8981 10.562 22.0856 9.9414 22.08C9.28515 22.0744 8.67578 21.7556 8.0964 21.225C7.51703 20.6944 6.9939 19.9706 6.5364 19.275C4.0164 15.435 3.8139 10.9238 5.2614 8.70002C6.32265 7.0669 9.0864 6.13502 9.5064 6.13502Z" fill="black"/>
<path d="M16.9764 1.14002C16.9445 2.1094 16.6127 3.05815 16.0614 3.76502C15.4839 4.50752 14.5127 5.02127 13.5714 5.17502C13.5883 4.24315 13.9558 3.27752 14.5164 2.59502C15.1052 1.88252 16.0802 1.36877 16.9764 1.14002Z" fill="black"/>
</g>
</g>
<defs>
<clipPath id="clip0_1_2921">
<rect width="24" height="24" fill="white"/>
</clipPath>
</defs>
</svg>
