<svg width="20" height="20" viewBox="0 0 20 20" fill="none" xmlns="http://www.w3.org/2000/svg">
<g clip-path="url(#clip0_1_538)">
<path fill-rule="evenodd" clip-rule="evenodd" d="M0.833374 2.36504C0.833374 1.95882 0.994746 1.56923 1.28199 1.28199C1.56923 0.994748 1.95882 0.833376 2.36504 0.833376H17.6334C17.8347 0.833047 18.0341 0.872428 18.2202 0.949265C18.4062 1.0261 18.5753 1.13888 18.7177 1.28116C18.8602 1.42343 18.9731 1.5924 19.0502 1.77838C19.1272 1.96437 19.1668 2.16373 19.1667 2.36504V17.6334C19.1669 17.8347 19.1274 18.0341 19.0505 18.2202C18.9736 18.4063 18.8607 18.5754 18.7184 18.7178C18.576 18.8602 18.407 18.9732 18.221 19.0502C18.035 19.1272 17.8356 19.1668 17.6342 19.1667H2.36504C2.16383 19.1667 1.96459 19.1271 1.7787 19.05C1.59282 18.973 1.42393 18.8601 1.28169 18.7178C1.13945 18.5755 1.02665 18.4065 0.949726 18.2206C0.872802 18.0347 0.833265 17.8354 0.833374 17.6342V2.36504ZM8.09004 7.82338H10.5725V9.07004C10.9309 8.35338 11.8475 7.70838 13.225 7.70838C15.8659 7.70838 16.4917 9.13588 16.4917 11.755V16.6067H13.8192V12.3517C13.8192 10.86 13.4609 10.0184 12.5509 10.0184C11.2884 10.0184 10.7634 10.9259 10.7634 12.3517V16.6067H8.09004V7.82338ZM3.50671 16.4925H6.18004V7.70838H3.50671V16.4917V16.4925ZM6.56254 4.84338C6.56758 5.07227 6.52685 5.29987 6.44274 5.5128C6.35863 5.72574 6.23283 5.91974 6.07273 6.0834C5.91263 6.24707 5.72146 6.3771 5.51042 6.46588C5.29938 6.55466 5.07274 6.60039 4.84379 6.60039C4.61484 6.60039 4.3882 6.55466 4.17716 6.46588C3.96613 6.3771 3.77495 6.24707 3.61485 6.0834C3.45475 5.91974 3.32895 5.72574 3.24484 5.5128C3.16073 5.29987 3.12 5.07227 3.12504 4.84338C3.13493 4.39409 3.32036 3.96654 3.64161 3.65228C3.96286 3.33803 4.39439 3.16206 4.84379 3.16206C5.29319 3.16206 5.72472 3.33803 6.04597 3.65228C6.36722 3.96654 6.55265 4.39409 6.56254 4.84338Z" fill="black"/>
</g>
<defs>
<clipPath id="clip0_1_538">
<rect width="20" height="20" fill="white"/>
</clipPath>
</defs>
</svg>
