<svg width="28" height="28" viewBox="0 0 28 28" fill="none" xmlns="http://www.w3.org/2000/svg">
<path d="M23.125 6.9375H19.625V4.75C19.625 3.78477 18.8402 3 17.875 3H9.125C8.15977 3 7.375 3.78477 7.375 4.75V6.9375H3.875C3.39102 6.9375 3 7.32852 3 7.8125V8.6875C3 8.80781 3.09844 8.90625 3.21875 8.90625H4.87031L5.5457 23.207C5.58945 24.1395 6.36055 24.875 7.29297 24.875H19.707C20.6422 24.875 21.4105 24.1422 21.4543 23.207L22.1297 8.90625H23.7812C23.9016 8.90625 24 8.80781 24 8.6875V7.8125C24 7.32852 23.609 6.9375 23.125 6.9375ZM17.6562 6.9375H9.34375V4.96875H17.6562V6.9375Z" fill="#B88E2F"/>
</svg>
